{"title":"All Hallows Eve 2013 WEBRip XViD AC3-BHRG","uid":9118444,"size":874327330,"categoryP":"video","categoryS":"movies","magnet":"?xt=urn:btih:b62c481e9e36929806bdc6b65f018851062ab42e&amp;dn=All+Hallows+Eve+2013+WEBRip+XViD+AC3-BHRG&amp;tr=udp%3A%2F%2Ftracker.openbittorrent.com%3A80&amp;tr=udp%3A%2F%2Fopen.demonii.com%3A1337&amp;tr=udp%3A%2F%2Ftracker.coppersurfer.tk%3A6969&amp;tr=udp%3A%2F%2Fexodus.desync.com%3A6969","seeders":1,"leechers":0,"uploader":"HeroMaster","files":-1,"time":1383077082,"description":"All Hallows Eve 2013 WEBRip XViD AC3 BHRG\n\n\nIMDB: http://imdb.com/title/tt2900624/\n\n\nSource: 720p WEBRip \n\n\nSample: Included\n\n\nFormat                                   : AVI\nFormat/Info                              : Audio Video Interleave\nFile size                                : 829 MiB\nDuration                                 : 1h 22mn\nOverall bit rate                         : 1 397 Kbps\nWriting library                          : VirtualDub build 30091/release\n\nVideo\nID                                       : 0\nFormat                                   : MPEG-4 Visual\nFormat profile                           : Advanced Simple@L5\nFormat settings, BVOP                    : 2\nFormat settings, QPel                    : No\nFormat settings, GMC                     : No warppoints\nFormat settings, Matrix                  : Default (H.263)\nMuxing mode                              : Packed bitstream\nCodec ID                                 : XVID\nCodec ID/Hint                            : XviD\nDuration                                 : 1h 22mn\nBit rate                                 : 1 004 Kbps\nWidth                                    : 720 pixels\nHeight                                   : 304 pixels\nDisplay aspect ratio                     : 2.35:1\nFrame rate                               : 23.976 fps\nColor space                              : YUV\nChroma subsampling                       : 4:2:0\nBit depth                                : 8 bits\nScan type                                : Progressive\nCompression mode                         : Lossy\nBits/(Pixel*Frame)                       : 0.191\nStream size                              : 595 MiB (72%)\nWriting library                          : XviD 1.2.1 (UTC 2008-12-04)\n\nAudio\nID                                       : 1\nFormat                                   : AC-3\nFormat/Info                              : Audio Coding 3\nMode extension                           : CM (complete main)\nFormat settings, Endianness              : Big\nCodec ID                                 : 2000\nDuration                                 : 1h 22mn\nBit rate mode                            : Constant\nBit rate                                 : 384 Kbps\nChannel count                            : 6 channels\nChannel positions                        : Front: L C R, Side: L R, LFE\nSampling rate                            : 48.0 KHz\nBit depth                                : 16 bits\nCompression mode                         : Lossy\nStream size                              : 228 MiB (27%)\n\n\nPoster:\n\n &lt;a href=&quot;\nhttp://i.imgur.com/cqMiEGO.jpg&quot; rel=&quot;nofollow&quot; target=&quot;_NEW&quot;&gt;\nhttp://i.imgur.com/cqMiEGO.jpg&lt;/a&gt;\n\n\nScreenshots:\n\n &lt;a href=&quot;\nhttp://i.imgur.com/w1ORdq0.png&quot; rel=&quot;nofollow&quot; target=&quot;_NEW&quot;&gt;\nhttp://i.imgur.com/w1ORdq0.png&lt;/a&gt;\n\n &lt;a href=&quot;\nhttp://i.imgur.com/oHgvFkY.png&quot; rel=&quot;nofollow&quot; target=&quot;_NEW&quot;&gt;\nhttp://i.imgur.com/oHgvFkY.png&lt;/a&gt;\n\n &lt;a href=&quot;\nhttp://i.imgur.com/vWnnSi3.png&quot; rel=&quot;nofollow&quot; target=&quot;_NEW&quot;&gt;\nhttp://i.imgur.com/vWnnSi3.png&lt;/a&gt;\n\n\nSEED AND ENJOY!","torrent":{"xt":"urn:btih:b62c481e9e36929806bdc6b65f018851062ab42e","amp;dn":"All+Hallows+Eve+2013+WEBRip+XViD+AC3-BHRG","amp;tr":["udp%3A%2F%2Ftracker.openbittorrent.com%3A80","udp%3A%2F%2Fopen.demonii.com%3A1337","udp%3A%2F%2Ftracker.coppersurfer.tk%3A6969","udp%3A%2F%2Fexodus.desync.com%3A6969"],"infoHash":"b62c481e9e36929806bdc6b65f018851062ab42e","infoHashBuffer":{"type":"Buffer","data":[182,44,72,30,158,54,146,152,6,189,198,182,95,1,136,81,6,42,180,46]},"announce":[],"urlList":[]}}